<svg width="1200" height="630" viewBox="0 0 1200 630" fill="none" xmlns="http://www.w3.org/2000/svg">
  <rect width="1200" height="630" rx="36" fill="#FFF7EF"/>
  <rect x="32" y="32" width="1136" height="566" rx="30" fill="url(#panel)"/>

  <rect x="78" y="78" width="126" height="126" rx="34" fill="url(#markBg)"/>
  <path d="M106 110H141C161.435 110 178 126.565 178 147C178 167.435 161.435 184 141 184H106V110Z" fill="white" fill-opacity="0.96"/>
  <path d="M136 126L171 181H152L122 133L136 126Z" fill="#FF7F5C"/>
  <circle cx="182" cy="118" r="11" fill="#FFF1E8"/>

  <text x="232" y="126" fill="#A44D2B" font-family="Arial, sans-serif" font-size="28" font-weight="700" letter-spacing="0.18em">
    READVOX
  </text>
  <text x="78" y="270" fill="#1F2634" font-family="Arial, sans-serif" font-size="64" font-weight="700">
    Upload media.
  </text>
  <text x="78" y="344" fill="#1F2634" font-family="Arial, sans-serif" font-size="64" font-weight="700">
    Dub it into another language.
  </text>
  <text x="78" y="412" fill="#5C6675" font-family="Arial, sans-serif" font-size="28">
    ElevenLabs transcription and speech synthesis,
  </text>
  <text x="78" y="452" fill="#5C6675" font-family="Arial, sans-serif" font-size="28">
    Gemini translation, playback, and download in one workflow.
  </text>

  <rect x="78" y="500" width="308" height="68" rx="22" fill="#FFFFFF"/>
  <text x="232" y="542" text-anchor="middle" fill="#1F2634" font-family="Arial, sans-serif" font-size="28" font-weight="700">
    Next.js App Router
  </text>

  <rect x="404" y="500" width="282" height="68" rx="22" fill="#FFFFFF"/>
  <text x="545" y="542" text-anchor="middle" fill="#1F2634" font-family="Arial, sans-serif" font-size="28" font-weight="700">
    Turso Allowlist
  </text>

  <rect x="704" y="500" width="356" height="68" rx="22" fill="#FFFFFF"/>
  <text x="882" y="542" text-anchor="middle" fill="#1F2634" font-family="Arial, sans-serif" font-size="28" font-weight="700">
    ElevenLabs + Gemini
  </text>

  <defs>
    <linearGradient id="panel" x1="96" y1="70" x2="1098" y2="590" gradientUnits="userSpaceOnUse">
      <stop stop-color="#FFF4EC"/>
      <stop offset="1" stop-color="#FFFFFF"/>
    </linearGradient>
    <linearGradient id="markBg" x1="78" y1="78" x2="204" y2="204" gradientUnits="userSpaceOnUse">
      <stop stop-color="#FF8F66"/>
      <stop offset="1" stop-color="#FFB58D"/>
    </linearGradient>
  </defs>
</svg>
